Coordinates
version=1
nRows=24
nColumns=24
inDegrees=yes

Units are S.I. units (second, meters, Newtons, ...)
Angles are in degrees.

endheader
time	pelvis_tilt	pelvis_list	pelvis_rotation	pelvis_tx	pelvis_ty	pelvis_tz	hip_flexion_r	hip_adduction_r	hip_rotation_r	knee_angle_r	ankle_angle_r	subtalar_angle_r	mtp_angle_r	hip_flexion_l	hip_adduction_l	hip_rotation_l	knee_angle_l	ankle_angle_l	subtalar_angle_l	mtp_angle_l	lumbar_extension	lumbar_bending	lumbar_rotation
      0.47900000	     -2.50296671	      3.95767031	      1.59851923	     -0.81050216	      0.99470268	      0.31072703	     30.78782367	     -5.11440028	     -6.36764540	    -12.66035690	     -1.56702605	     -7.86802993	     -0.43462260	    -10.21177226	      5.24766833	     -6.64662902	     -6.17868659	     10.60377155	     -7.82792351	     -0.11987254	     -9.99448488	     -4.80036279	     -1.95092951
      0.48316667	     -2.31551685	      3.89310846	      1.48710665	     -0.80440513	      0.99405500	      0.31145051	     30.33806746	     -4.90163147	     -6.30534319	    -12.53224656	     -1.66587639	     -7.87105004	     -0.75620138	    -10.53266213	      5.08113320	     -6.93706568	     -6.72604771	     10.92960186	     -7.33204193	     -0.28790354	    -10.12831432	     -4.70278613	     -1.83775360
      0.48733333	     -2.19725021	      3.90617197	      1.50962193	     -0.79847212	      0.99338989	      0.31182678	     29.98289129	     -4.85308546	     -6.37453287	    -12.51579223	     -1.76911518	     -7.86488010	     -0.89506808	    -10.73915636	      5.00124589	     -6.88583821	     -7.33171892	     11.12905070	     -7.17762086	     -0.35263271	    -10.21527167	     -4.68419557	     -1.74858882
      0.49150000	     -1.96157251	      3.81876870	      1.47598729	     -0.79239348	      0.99298245	      0.31228382	     29.47114844	     -4.67753000	     -6.46550168	    -12.49015064	     -1.94510938	     -7.86494468	     -1.05456183	    -11.05748712	      4.81065857	     -6.97891582	     -7.97523163	     11.29721851	     -6.97542516	     -0.42031112	    -10.42405105	     -4.51997440	     -1.71866727
      0.49566667	     -1.74197557	      3.73813108	      1.42672940	     -0.78629091	      0.99260247	      0.31278472	     28.97781823	     -4.49772491	     -6.52406014	    -12.50120791	     -2.14506634	     -7.89480774	     -1.17844686	    -11.33427643	      4.62815745	     -7.05083214	     -8.66767553	     11.43536167	     -6.81718220	     -0.46080869	    -10.60367802	     -4.38220350	     -1.64358366
      0.49983333	     -1.52092487	      3.64649482	      1.35504739	     -0.78015997	      0.99227458	      0.31333034	     28.48558234	     -4.29645513	     -6.56916227	    -12.54395475	     -2.37465257	     -7.93176378	     -1.26330712	    -11.58186083	      4.43339578	     -7.15347715	     -9.42030745	     11.54049750	     -6.65501749	     -0.47079114	    -10.77810195	     -4.23535416	     -1.55856648
      0.50400000	     -1.29670863	      3.53968508	      1.24491749	     -0.77399552	      0.99199911	      0.31393498	     27.99987560	     -4.06289332	     -6.58070582	    -12.62668430	     -2.64691372	     -8.01475912	     -1.32188528	    -11.80474086	      4.22641679	     -7.29549972	    -10.22766894	     11.58379334	     -6.51790343	     -0.44612540	    -10.96378555	     -4.05389749	     -1.45759335
      0.50816667	     -1.06739717	      3.43052473	      1.13927091	     -0.76783959	      0.99179738	      0.31455333	     27.50730330	     -3.83061954	     -6.59918672	    -12.72515912	     -2.95004320	     -8.11537990	     -1.34166655	    -11.98594024	      4.00990709	     -7.43419702	    -11.12123189	     11.60311826	     -6.37160411	     -0.38621233	    -11.14774607	     -3.88668530	     -1.30955536
      0.51233333	     -0.84797766	      3.31093112	      1.00037998	     -0.76165798	      0.99164185	      0.31525863	     27.02574566	     -3.56991328	     -6.56624877	    -12.83118976	     -3.30083433	     -8.26202940	     -1.33029771	    -12.12253509	      3.78194767	     -7.61781878	    -12.08443862	     11.57156846	     -6.24831063	     -0.28890860	    -11.31235954	     -3.71846595	     -1.15534521
      0.51650000	     -0.63659170	      3.17968300	      0.83751387	     -0.75545991	      0.99152735	      0.31599371	     26.56488380	     -3.29318323	     -6.52234701	    -12.96910660	     -3.67339624	     -8.43995802	     -1.28895886	    -12.20974636	      3.54144031	     -7.83516642	    -13.12852543	     11.48844968	     -6.12812449	     -0.14943631	    -11.47360764	     -3.53016820	     -0.96882388
      0.52066667	     -0.35362772	      3.03698452	      0.57903225	     -0.74928257	      0.99154021	      0.31694173	     26.04880251	     -2.96074130	     -6.37465797	    -13.13331351	     -4.05092000	     -8.64459103	     -1.18295125	    -12.34383048	      3.29270240	     -8.18606746	    -14.22730837	     11.35516525	     -5.97986992	      0.13732768	    -11.72164805	     -3.34454653	     -0.74819727
      0.52483333	     -0.23574597	      2.94010714	      0.43988424	     -0.74316757	      0.99140636	      0.31754737	     25.72309715	     -2.75477680	     -6.34846681	    -13.34951128	     -4.46557270	     -8.78315640	     -1.13960380	    -12.22629953	      3.09350208	     -8.30556477	    -15.45662017	     11.16712264	     -6.03703046	      0.25522653	    -11.78606624	     -3.17174175	     -0.56256195
      0.52900000	      0.04199121	      2.73398495	      0.17653794	     -0.73696074	      0.99157629	      0.31860198	     25.19980469	     -2.35297233	     -6.17800494	    -13.51068585	     -4.89881380	     -9.21655837	     -1.00989201	    -12.25458614	      2.74692386	     -8.73881825	    -16.74006048	     10.87264082	     -5.80677760	      0.58914919	    -12.01845996	     -2.94418211	     -0.24663514
      0.53316667	      0.27817028	      2.58683029	     -0.18166006	     -0.73086570	      0.99165488	      0.31980912	     24.78377449	     -1.98345462	     -5.88069017	    -13.76281010	     -5.30070336	     -9.51451319	     -0.76366602	    -12.19050874	      2.47942102	     -9.23029059	    -18.11950442	     10.60881123	     -5.67709095	      1.26147653	    -12.22145192	     -2.79474675	      0.12479247
      0.53733333	      0.36645494	      2.47067628	     -0.46340934	     -0.72476965	      0.99160051	      0.32076643	     24.54596864	     -1.70367920	     -5.68578822	    -14.07977954	     -5.66545418	     -9.78229384	      1.44794855	    -11.90491561	      2.24133159	     -9.58422639	    -19.58086624	     10.09719952	     -5.80883116	      8.15793121	    -12.24443522	     -2.63888072	      0.43264921
      0.54150000	      0.50858260	      2.29873639	     -0.62767937	     -0.71871330	      0.99177575	      0.32140112	     24.22056535	     -1.44161487	     -5.64863513	    -14.38152889	     -5.98298727	     -9.93481405	      1.44291675	    -11.60926043	      1.93360452	     -9.76662452	    -21.15584780	      9.59653072	     -6.01153543	      8.18717035	    -12.35271711	     -2.38741081	      0.62127705
      0.54566667	      0.73090996	      2.09653099	     -0.98049063	     -0.71270540	      0.99202938	      0.32263673	     23.83288948	     -1.03541866	     -5.33876777	    -14.68958166	     -6.32368756	    -10.35874355	      1.44809980	    -11.36864746	      1.56254322	    -10.29697399	    -22.81228772	      9.09678971	     -5.89066406	      8.38531415	    -12.55316654	     -2.18408688	      1.02757085
      0.54983333	      0.86056261	      1.91584025	     -1.29639877	     -0.70673678	      0.99219205	      0.32370611	     23.56983637	     -0.68931641	     -5.07925240	    -15.06577979	     -6.57069892	    -10.64411667	      1.46147195	    -10.96728729	      1.21416228	    -10.72730523	    -24.55829457	      8.47021637	     -5.97989396	      8.71538413	    -12.65029106	     -1.98296150	      1.41912462
      0.55400000	      0.98635572	      1.74164236	     -1.49654287	     -0.70080626	      0.99246787	      0.32433850	     23.30656511	     -0.44085105	     -5.00123800	    -15.46997423	     -6.69382876	    -10.66527544	      1.46651712	    -10.49977352	      0.88012094	    -10.95857822	    -26.37107864	      7.72931113	     -6.28400468	      8.78740079	    -12.75680301	     -1.71620309	      1.58056444
      0.55816667	      1.02974631	      1.53218133	     -1.93026388	     -0.69491539	      0.99249513	      0.32578775	     23.17134390	     -0.00166901	     -4.56368157	    -15.90478225	     -6.90658366	    -11.03994902	      1.48542045	     -9.91439912	      0.45532757	    -11.57119059	    -28.29178766	      7.03096017	     -6.31040931	      9.39788122	    -12.75945735	     -1.53567661	      2.12837064
      0.56233333	      1.05763178	      1.33526006	     -2.12343097	     -0.68910379	      0.99264595	      0.32655254	     23.02964726	      0.28268201	     -4.43711702	    -16.35143199	     -6.96767127	    -11.23846179	      1.49058973	     -9.22293840	      0.04040190	    -11.82366882	    -30.30426092	      6.20773967	     -6.59738616	      9.92739674	    -12.76272424	     -1.29409865	      2.45398557
      0.56650000	      1.13535034	      1.08388504	     -2.35032662	     -0.68327339	      0.99291365	      0.32726935	     22.81807102	      0.61327976	     -4.32182780	    -16.76782591	     -7.04974404	    -11.22812110	      1.49242971	     -8.56586397	     -0.42824769	    -12.11758911	    -32.34320666	      5.32761674	     -6.98618870	     10.15723941	    -12.83384551	     -0.95898088	      2.70006241
      0.57066667	      1.09654632	      0.86172672	     -2.61063412	     -0.67755770	      0.99292332	      0.32824794	     22.76699581	      0.96010214	     -4.08985243	    -17.25739499	     -6.96386816	    -11.41019266	      1.48773866	     -7.72357703	     -0.91081762	    -12.45515837	    -34.48456952	      4.45677825	     -7.25351536	     10.62923100	    -12.77556955	     -0.70302390	      3.08185070
      0.57483333	      1.13350555	      0.57644446	     -2.82665751	     -0.67180327	      0.99314007	      0.32894518	     22.59016543	      1.31522068	     -3.98654434	    -17.67463337	     -6.92957868	    -11.33033565	      1.48478169	     -6.94662802	     -1.44705933	    -12.72338732	    -36.63135082	      3.54163833	     -7.71581023	     10.84676701	    -12.81181988	     -0.32667539	      3.32609296
